<svg width="16" height="16" viewBox="0 0 16 16" fill="none" xmlns="http://www.w3.org/2000/svg">
<path d="M7.5 1C6.01664 1 4.56659 1.43987 3.33323 2.26398C2.09986 3.08809 1.13856 4.25943 0.570907 5.62987C0.00324966 7.00032 -0.145275 8.50832 0.144114 9.96318C0.433503 11.418 1.14781 12.7544 2.1967 13.8033C3.2456 14.8522 4.58197 15.5665 6.03682 15.8559C7.49168 16.1453 8.99968 15.9968 10.3701 15.4291C11.7406 14.8614 12.9119 13.9001 13.736 12.6668C14.5601 11.4334 15 9.98336 15 8.5C14.9977 6.5116 14.2067 4.6053 12.8007 3.19929C11.3947 1.79328 9.4884 1.00235 7.5 1ZM13.5961 7.81818H10.8886C10.8607 6.08561 10.4761 4.37737 9.75886 2.8C10.7928 3.21081 11.6958 3.89457 12.3716 4.77834C13.0474 5.66211 13.4706 6.71274 13.5961 7.81818ZM7.5 14.6364C6.71727 14.6364 5.60387 12.5336 5.46818 9.18182H9.53182C9.39614 12.5336 8.28273 14.6364 7.5 14.6364ZM5.46818 7.81818C5.60455 4.46636 6.71727 2.36364 7.5 2.36364C8.28273 2.36364 9.39614 4.46636 9.53182 7.81818H5.46818ZM5.24114 2.8C4.52386 4.37737 4.13927 6.08561 4.11137 7.81818H1.40387C1.52938 6.71274 1.95261 5.66211 2.62841 4.77834C3.30421 3.89457 4.20722 3.21081 5.24114 2.8ZM1.40387 9.18182H4.11137C4.13927 10.9144 4.52386 12.6226 5.24114 14.2C4.20722 13.7892 3.30421 13.1054 2.62841 12.2217C1.95261 11.3379 1.52938 10.2873 1.40387 9.18182ZM9.75886 14.2C10.4761 12.6226 10.8607 10.9144 10.8886 9.18182H13.5961C13.4706 10.2873 13.0474 11.3379 12.3716 12.2217C11.6958 13.1054 10.7928 13.7892 9.75886 14.2Z" fill="#8C8A98"/>
</svg>
