<svg width="14" height="14" viewBox="0 0 14 14" fill="none" xmlns="http://www.w3.org/2000/svg">
<path d="M13.3636 6.64762H8.792C8.66241 6.27273 8.42027 5.94778 8.09916 5.71784C7.77806 5.48789 7.39391 5.36435 7 5.36435C6.60609 5.36435 6.22194 5.48789 5.90084 5.71784C5.57973 5.94778 5.33759 6.27273 5.208 6.64762H0.636364C0.467589 6.64762 0.305728 6.71519 0.186387 6.83546C0.0670454 6.95573 0 7.11886 0 7.28895C0 7.45904 0.0670454 7.62217 0.186387 7.74244C0.305728 7.86272 0.467589 7.93028 0.636364 7.93028H5.208C5.33759 8.30517 5.57973 8.63012 5.90084 8.86007C6.22194 9.09001 6.60609 9.21355 7 9.21355C7.39391 9.21355 7.77806 9.09001 8.09916 8.86007C8.42027 8.63012 8.66241 8.30517 8.792 7.93028H13.3636C13.5324 7.93028 13.6943 7.86272 13.8136 7.74244C13.933 7.62217 14 7.45904 14 7.28895C14 7.11886 13.933 6.95573 13.8136 6.83546C13.6943 6.71519 13.5324 6.64762 13.3636 6.64762ZM7 7.93028C6.87414 7.93028 6.7511 7.89267 6.64645 7.8222C6.54181 7.75173 6.46024 7.65157 6.41208 7.53438C6.36391 7.41719 6.35131 7.28824 6.37586 7.16383C6.40042 7.03943 6.46103 6.92515 6.55002 6.83546C6.63902 6.74577 6.75241 6.68469 6.87585 6.65994C6.99929 6.6352 7.12724 6.6479 7.24353 6.69644C7.35981 6.74498 7.45919 6.82718 7.52912 6.93265C7.59904 7.03811 7.63636 7.16211 7.63636 7.28895C7.63636 7.45904 7.56932 7.62217 7.44998 7.74244C7.33064 7.86272 7.16877 7.93028 7 7.93028Z" fill="#8C8A98"/>
<path d="M0.636364 3.44095H1.38982C1.51941 3.81584 1.76155 4.1408 2.08266 4.37075C2.40376 4.60069 2.78791 4.72423 3.18182 4.72423C3.57573 4.72423 3.95988 4.60069 4.28098 4.37075C4.60208 4.1408 4.84422 3.81584 4.97382 3.44095H13.3636C13.5324 3.44095 13.6943 3.37338 13.8136 3.25311C13.933 3.13284 14 2.96971 14 2.79962C14 2.62952 13.933 2.4664 13.8136 2.34612C13.6943 2.22585 13.5324 2.15828 13.3636 2.15828H4.97382C4.84422 1.78339 4.60208 1.45844 4.28098 1.22849C3.95988 0.998541 3.57573 0.875 3.18182 0.875C2.78791 0.875 2.40376 0.998541 2.08266 1.22849C1.76155 1.45844 1.51941 1.78339 1.38982 2.15828H0.636364C0.467589 2.15828 0.305728 2.22585 0.186387 2.34612C0.0670454 2.4664 0 2.62952 0 2.79962C0 2.96971 0.0670454 3.13284 0.186387 3.25311C0.305728 3.37338 0.467589 3.44095 0.636364 3.44095ZM3.18182 2.15828C3.30768 2.15828 3.43071 2.19589 3.53536 2.26636C3.64001 2.33684 3.72158 2.437 3.76974 2.55419C3.81791 2.67138 3.83051 2.80033 3.80595 2.92474C3.7814 3.04914 3.72079 3.16342 3.63179 3.25311C3.5428 3.3428 3.42941 3.40388 3.30597 3.42863C3.18252 3.45338 3.05457 3.44068 2.93829 3.39214C2.82201 3.34359 2.72263 3.26139 2.6527 3.15592C2.58278 3.05046 2.54545 2.92646 2.54545 2.79962C2.54545 2.62952 2.6125 2.4664 2.73184 2.34612C2.85118 2.22585 3.01304 2.15828 3.18182 2.15828Z" fill="#8C8A98"/>
<path d="M13.3636 11.137H12.6102C12.4806 10.7621 12.2384 10.4371 11.9173 10.2072C11.5962 9.97724 11.2121 9.8537 10.8182 9.8537C10.4243 9.8537 10.0401 9.97724 9.71902 10.2072C9.39792 10.4371 9.15578 10.7621 9.02618 11.137H0.636364C0.467589 11.137 0.305728 11.2045 0.186387 11.3248C0.0670454 11.4451 0 11.6082 0 11.7783C0 11.9484 0.0670454 12.1115 0.186387 12.2318C0.305728 12.3521 0.467589 12.4196 0.636364 12.4196H9.02618C9.15578 12.7945 9.39792 13.1195 9.71902 13.3494C10.0401 13.5794 10.4243 13.7029 10.8182 13.7029C11.2121 13.7029 11.5962 13.5794 11.9173 13.3494C12.2384 13.1195 12.4806 12.7945 12.6102 12.4196H13.3636C13.5324 12.4196 13.6943 12.3521 13.8136 12.2318C13.933 12.1115 14 11.9484 14 11.7783C14 11.6082 13.933 11.4451 13.8136 11.3248C13.6943 11.2045 13.5324 11.137 13.3636 11.137ZM10.8182 12.4196C10.6923 12.4196 10.5693 12.382 10.4646 12.3116C10.36 12.2411 10.2784 12.1409 10.2303 12.0237C10.1821 11.9066 10.1695 11.7776 10.194 11.6532C10.2186 11.5288 10.2792 11.4145 10.3682 11.3248C10.4572 11.2351 10.5706 11.174 10.694 11.1493C10.8175 11.1246 10.9454 11.1373 11.0617 11.1858C11.178 11.2343 11.2774 11.3165 11.3473 11.422C11.4172 11.5275 11.4545 11.6515 11.4545 11.7783C11.4545 11.9484 11.3875 12.1115 11.2682 12.2318C11.1488 12.3521 10.987 12.4196 10.8182 12.4196Z" fill="#8C8A98"/>
</svg>
