<svg width="16" height="16" viewBox="0 0 16 16" fill="none" xmlns="http://www.w3.org/2000/svg">
<path d="M15.3085 13.1875L14.15 2.36752C14.0959 1.85418 13.8535 1.37911 13.4695 1.03417C13.0854 0.689227 12.5872 0.498913 12.071 0.50002H3.929C3.41282 0.498913 2.91456 0.689227 2.53055 1.03417C2.14655 1.37911 1.90407 1.85418 1.85 2.36752L0.691504 13.1875C0.660288 13.4791 0.69077 13.7739 0.780971 14.0529C0.871171 14.3319 1.01907 14.5888 1.21506 14.8069C1.41104 15.025 1.65073 15.1995 1.91854 15.3189C2.18635 15.4383 2.47628 15.5 2.7695 15.5H13.2305C13.5237 15.5 13.8137 15.4383 14.0815 15.3189C14.3493 15.1995 14.589 15.025 14.785 14.8069C14.9809 14.5888 15.1288 14.3319 15.219 14.0529C15.3092 13.7739 15.3397 13.4791 15.3085 13.1875ZM14.0415 14.1375C13.9398 14.2521 13.8149 14.3436 13.6751 14.4061C13.5352 14.4686 13.3837 14.5006 13.2305 14.5H2.7695C2.61652 14.5001 2.46523 14.4679 2.3255 14.4056C2.18576 14.3433 2.0607 14.2523 1.95845 14.1385C1.8562 14.0247 1.77906 13.8906 1.73203 13.7451C1.68501 13.5995 1.66915 13.4456 1.6855 13.2935L2.8445 2.47402C2.87293 2.20634 2.99949 1.95868 3.19976 1.77881C3.40003 1.59895 3.65982 1.49963 3.929 1.50002H12.071C12.3402 1.49963 12.6 1.59895 12.8003 1.77881C13.0005 1.95868 13.1271 2.20634 13.1555 2.47402L14.3145 13.2935C14.3315 13.4457 14.3159 13.5997 14.2688 13.7454C14.2218 13.891 14.1443 14.025 14.0415 14.1385V14.1375Z" fill="white"/>
<path d="M11.5 3.00002H10.5C10.3674 3.00002 10.2402 3.05269 10.1464 3.14646C10.0527 3.24023 10 3.36741 10 3.50002C10 3.63262 10.0527 3.7598 10.1464 3.85357C10.2402 3.94734 10.3674 4.00002 10.5 4.00002C10.5 4.66306 10.2366 5.29894 9.76777 5.76778C9.29893 6.23662 8.66304 6.50002 8 6.50002C7.33696 6.50002 6.70107 6.23662 6.23223 5.76778C5.76339 5.29894 5.5 4.66306 5.5 4.00002C5.63261 4.00002 5.75979 3.94734 5.85355 3.85357C5.94732 3.7598 6 3.63262 6 3.50002C6 3.36741 5.94732 3.24023 5.85355 3.14646C5.75979 3.05269 5.63261 3.00002 5.5 3.00002H4.5C4.36739 3.00002 4.24021 3.05269 4.14645 3.14646C4.05268 3.24023 4 3.36741 4 3.50002C4 3.63262 4.05268 3.7598 4.14645 3.85357C4.24021 3.94734 4.36739 4.00002 4.5 4.00002C4.5 4.92827 4.86875 5.81851 5.52513 6.47489C6.1815 7.13127 7.07174 7.50002 8 7.50002C8.92826 7.50002 9.8185 7.13127 10.4749 6.47489C11.1313 5.81851 11.5 4.92827 11.5 4.00002C11.6326 4.00002 11.7598 3.94734 11.8536 3.85357C11.9473 3.7598 12 3.63262 12 3.50002C12 3.36741 11.9473 3.24023 11.8536 3.14646C11.7598 3.05269 11.6326 3.00002 11.5 3.00002Z" fill="white"/>
</svg>
