<svg width="8" height="14" viewBox="0 0 8 14" fill="none" xmlns="http://www.w3.org/2000/svg">
<path d="M0.249136 5.78241H7.75086C7.84675 5.78241 7.9338 5.72675 7.97528 5.63908C8.01687 5.55167 8.00529 5.44755 7.94576 5.37165L4.19477 0.595257C4.14745 0.535041 4.07584 0.5 4.00012 0.5C3.9244 0.5 3.85267 0.535041 3.80547 0.595257L0.054357 5.37165C-0.00529714 5.44768 -0.0168792 5.55167 0.0247167 5.63908C0.0661882 5.72675 0.153241 5.78241 0.249136 5.78241Z" fill="#8C8A98"/>
<path d="M7.75073 8.21759H0.249136C0.153365 8.21759 0.0661882 8.27313 0.0247167 8.36092C-0.0168792 8.44833 -0.00529715 8.55244 0.054357 8.62822L3.80534 13.4047C3.85267 13.465 3.92428 13.5 4 13.5C4.07572 13.5 4.14745 13.465 4.19465 13.4047L7.94539 8.62822C8.00504 8.55219 8.0165 8.44833 7.9749 8.36092C7.93368 8.27313 7.84663 8.21759 7.75073 8.21759Z" fill="#D6D5D9"/>
</svg>
